# File created by Blade
# Date/Time:  Tue Jan 27 18:09:18 2015
#---------------------------------------------------------
:version 1.10
:name HOM
:units
  mass 1.0
  length 1.000000
  angle deg
:documentation
     Acclaim Skeleton File
:root
   axis xyz
   order TX TY TZ RX RY RZ
   position 0.000000 0.000000 0.000000
   orientation 0 0 0
:bonedata
   begin
      id 1
      name Spine_dum
      direction 0.000000 1.000000 0.000000
      length 5.195262
      axis 0.0 0.0 0.0 xyz
   end
   begin
      id 2
      name LeftUpLeg_dum
      direction 1.000000 0.000000 0.000000
      length 3.351363
      axis 0.0 0.0 0.0 xyz
   end
   begin
      id 3
      name RightUpLeg_dum
      direction -1.000000 0.000000 0.000000
      length 3.351363
      axis 0.0 0.0 0.0 xyz
   end
   begin
      id 4
      name Spine
      direction 0.000000 1.000000 0.000000
      length 0.000000
      axis 0.0 0.0 0.0 xyz
      dof rx ry rz
   end
   begin
      id 5
      name Spine_dum1
      direction 0.000000 1.000000 0.000000
      length 15.653875
      axis 0.0 0.0 0.0 xyz
   end
   begin
      id 6
      name Spine_dum2
      direction 0.000000 1.000000 0.000000
      length 10.329768
      axis 0.0 0.0 0.0 xyz
   end
   begin
      id 7
      name Spine_dum3
      direction 0.000000 1.000000 0.000000
      length 10.329768
      axis 0.0 0.0 0.0 xyz
   end
   begin
      id 8
      name Head
      direction 0.000000 1.000000 0.000000
      length 4.527550
      axis 0.0 0.0 0.0 xyz
      dof rx ry rz
   end
   begin
      id 9
      name LeftShoulder
      direction 1.000000 0.000000 0.000000
      length 6.996006
      axis 0.0 0.0 -90.0 xyz
      dof rx ry rz
   end
   begin
      id 10
      name LeftArm
      direction 1.000000 0.000000 0.000000
      length 10.209302
      axis 0.0 0.0 -90.0 xyz
      dof rx ry rz
   end
   begin
      id 11
      name LeftForeArm
      direction 1.000000 0.000000 0.000000
      length 8.563163
      axis 0.0 0.0 -90.0 xyz
      dof ry rz rx
   end
   begin
      id 12
      name LeftHand
      direction 0.000000 0.000000 0.000000
      length 0.000000
      axis 0.0 0.0 -90.0 xyz
      dof rx ry rz
   end
   begin
      id 13
      name LeftHand_dum1
      direction 0.000000 0.000000 0.000000
      length 0.000000
      axis 0.0 0.0 -90.0 xyz
   end
   begin
      id 14
      name LeftHand_dum2
      direction 1.000000 0.000000 0.000000
      length 3.937000
      axis 0.0 0.0 -90.0 xyz
   end
   begin
      id 15
      name LeftHandThumb1
      direction 0.000000 0.000000 1.000000
      length 3.937000
      axis 0.0 0.0 -90.0 xyz
      dof rx rz ry
   end
   begin
      id 16
      name RightShoulder
      direction -1.000000 0.000000 0.000000
      length 6.996006
      axis 0.0 0.0 90.0 xyz
      dof rx ry rz
   end
   begin
      id 17
      name RightArm
      direction -1.000000 0.000000 0.000000
      length 10.209302
      axis 0.0 0.0 90.0 xyz
      dof rx ry rz
   end
   begin
      id 18
      name RightForeArm
      direction -1.000000 0.000000 0.000000
      length 8.563163
      axis 0.0 0.0 90.0 xyz
      dof ry rz rx
   end
   begin
      id 19
      name RightHand
      direction 0.000000 0.000000 0.000000
      length 0.000000
      axis 0.0 0.0 90.0 xyz
      dof rx ry rz
   end
   begin
      id 20
      name RightHand_dum1
      direction 0.000000 0.000000 0.000000
      length 0.000000
      axis 0.0 0.0 90.0 xyz
   end
   begin
      id 21
      name RightHand_dum2
      direction -1.000000 0.000000 0.000000
      length 3.937000
      axis 0.0 0.0 90.0 xyz
   end
   begin
      id 22
      name RightHandThumb1
      direction 0.000000 0.000000 1.000000
      length 3.937000
      axis 0.0 0.0 90.0 xyz
      dof rx rz ry
   end
   begin
      id 23
      name LeftUpLeg
      direction 0.000000 -1.000000 0.000000
      length 16.346831
      axis 0.0 0.0 0.0 xyz
      dof rx ry rz
   end
   begin
      id 24
      name LeftLeg
      direction 0.000000 -1.000000 0.000000
      length 13.959795
      axis 0.0 0.0 0.0 xyz
      dof rx ry rz
   end
   begin
      id 25
      name LeftFoot
      direction 0.000000 -0.258819 0.965926
      length 5.165550
      axis 15.0 0.0 0.0 xyz
      dof rx ry rz
   end
   begin
      id 26
      name LeftToeBase
      direction 0.000000 0.000000 1.000000
      length 2.952750
      axis 0.0 0.0 0.0 xyz
      dof rx ry rz
   end
   begin
      id 27
      name RightUpLeg
      direction 0.000000 -1.000000 0.000000
      length 16.346831
      axis 0.0 0.0 0.0 xyz
      dof rx ry rz
   end
   begin
      id 28
      name RightLeg
      direction 0.000000 -1.000000 0.000000
      length 13.959795
      axis 0.0 0.0 0.0 xyz
      dof rx ry rz
   end
   begin
      id 29
      name RightFoot
      direction 0.000000 -0.258819 0.965926
      length 5.165550
      axis 15.0 0.0 0.0 xyz
      dof rx ry rz
   end
   begin
      id 30
      name RightToeBase
      direction 0.000000 0.000000 1.000000
      length 2.952750
      axis 0.0 0.0 0.0 xyz
      dof rx ry rz
   end
:hierarchy
   begin
      root Spine_dum LeftUpLeg_dum RightUpLeg_dum
      Spine_dum Spine
      LeftUpLeg_dum LeftUpLeg
      RightUpLeg_dum RightUpLeg
      Spine Spine_dum1 Spine_dum2 Spine_dum3
      Spine_dum1 Head
      Spine_dum2 LeftShoulder
      Spine_dum3 RightShoulder
      LeftShoulder LeftArm
      LeftArm LeftForeArm
      LeftForeArm LeftHand
      LeftHand LeftHand_dum1 LeftHand_dum2
      LeftHand_dum1 LeftHandThumb1
      RightShoulder RightArm
      RightArm RightForeArm
      RightForeArm RightHand
      RightHand RightHand_dum1 RightHand_dum2
      RightHand_dum1 RightHandThumb1
      LeftUpLeg LeftLeg
      LeftLeg LeftFoot
      LeftFoot LeftToeBase
      RightUpLeg RightLeg
      RightLeg RightFoot
      RightFoot RightToeBase
   end

# File created by Blade
# Date/Time:  Tue Jan 27 18:09:10 2015
# Frame Rate: 120.000 fps
#------------------------------------------------------
:FULLY-SPECIFIED
:DEGREES
257
root -1.403818 31.830470 -6.227174 6.478527 14.519713 4.554846
Spine -6.941022 2.727936 -1.055538
Head -0.829423 -20.744759 3.236959
LeftShoulder -7.681595 16.873916 5.356301
LeftArm 23.832019 38.313645 -72.552983
LeftForeArm -1.997012 -0.000000 15.614289
LeftHand -10.479893 -0.000000 -3.086592
LeftHandThumb1 -26.253704 0.000000 33.147579
RightShoulder 7.869737 46.193911 -34.447414
RightArm 47.664227 11.902466 118.383738
RightForeArm 14.908759 0.000000 106.188743
RightHand -8.909111 0.000000 0.814713
RightHandThumb1 -24.326973 -0.000000 -32.862282
LeftUpLeg -2.555610 -5.530333 -1.421538
LeftLeg 2.197254 -0.000000 -0.000000
LeftFoot -16.738415 13.825160 -24.412227
LeftToeBase 8.372800 -0.000000 -0.000000
RightUpLeg 3.076145 -9.048413 -4.179978
RightLeg -3.811232 -0.000000 0.000000
RightFoot -16.998358 -16.577459 10.584690
RightToeBase 5.288793 -0.000000 -0.000000
258
root -1.401726 31.830699 -6.223872 6.477795 14.649731 4.573708
Spine -6.906238 2.759251 -1.027593
Head -0.869949 -20.970295 3.300789
LeftShoulder -7.653163 16.808191 5.369987
LeftArm 23.910906 38.462241 -72.512839
LeftForeArm -1.979085 -0.000000 15.516484
LeftHand -10.459587 0.000000 -3.083411
LeftHandThumb1 -26.253704 0.000000 33.147579
RightShoulder 7.974828 46.827504 -34.630726
RightArm 47.272993 11.490846 118.501969
RightForeArm 14.586660 -0.000000 106.006266
RightHand -8.793342 -0.000000 0.567556
RightHandThumb1 -24.326973 -0.000000 -32.862282
LeftUpLeg -2.551740 -5.595552 -1.428777
LeftLeg 2.191600 -0.000000 -0.000000
LeftFoot -16.701560 13.770088 -24.413278
LeftToeBase 8.398779 -0.000000 -0.000000
RightUpLeg 3.105134 -9.055420 -4.188868
RightLeg -3.789846 -0.000000 0.000000
RightFoot -17.043752 -16.673826 10.620913
RightToeBase 5.239246 -0.000000 -0.000000
259
root -1.402340 31.831516 -6.220222 6.495623 14.792631 4.586901
Spine -6.901693 2.813013 -1.012763
Head -0.914977 -21.202201 3.413513
LeftShoulder -7.602632 16.747822 5.393571
LeftArm 24.011866 38.610821 -72.445504
LeftForeArm -2.015577 -0.000000 15.375518
LeftHand -10.437099 -0.000000 -3.141415
LeftHandThumb1 -26.253704 0.000000 33.147579
RightShoulder 8.013097 47.276354 -34.839747
RightArm 47.042362 11.074312 118.706870
RightForeArm 14.305850 -0.000000 105.787904
RightHand -8.807770 0.000000 0.831666
RightHandThumb1 -24.326973 -0.000000 -32.862282
LeftUpLeg -2.575049 -5.664401 -1.426363
LeftLeg 2.202283 -0.000000 -0.000000
LeftFoot -16.675997 13.705818 -24.466046
LeftToeBase 8.377798 -0.000000 -0.000000
RightUpLeg 3.112924 -9.104231 -4.181952
RightLeg -3.767555 -0.000000 0.000000
RightFoot -17.074825 -16.774873 10.626415
RightToeBase 5.241274 -0.000000 -0.000000
260
root -1.401075 31.831918 -6.214860 6.501821 14.926983 4.602333
Spine -6.886766 2.879608 -0.997817
Head -0.970096 -21.444744 3.510900
LeftShoulder -7.567011 16.667423 5.405731
LeftArm 24.109703 38.785319 -72.357237
LeftForeArm -2.123465 -0.000000 15.220024
LeftHand -10.444200 -0.000000 -3.196795
LeftHandThumb1 -26.253704 0.000000 33.147579
RightShoulder 8.056834 47.774072 -35.039793
RightArm 46.761838 10.722301 118.886421
RightForeArm 13.993266 0.000000 105.601647
RightHand -8.920110 0.000000 1.020033
RightHandThumb1 -24.326973 -0.000000 -32.862282
LeftUpLeg -2.579601 -5.739952 -1.422374
LeftLeg 2.192798 -0.000000 -0.000000
LeftFoot -16.621190 13.658514 -24.409155
LeftToeBase 8.354208 -0.000000 -0.000000
RightUpLeg 3.141000 -9.126015 -4.182648
RightLeg -3.755559 -0.000000 0.000000
RightFoot -17.117868 -16.864695 10.675562
RightToeBase 5.237593 -0.000000 -0.000000
261
root -1.399726 31.832229 -6.209790 6.505132 15.056962 4.608635
Spine -6.875415 2.965336 -0.971259
Head -1.006794 -21.721938 3.639721
LeftShoulder -7.509267 16.583234 5.409321
LeftArm 24.175107 38.906020 -72.289311
LeftForeArm -2.235743 -0.000000 15.057388
LeftHand -10.503669 0.000000 -3.239800
LeftHandThumb1 -26.253704 0.000000 33.147579
RightShoulder 8.112469 48.294540 -35.238914
RightArm 46.440077 10.362841 118.993670
RightForeArm 14.029399 0.000000 105.381609
RightHand -8.858493 -0.000000 0.776213
RightHandThumb1 -24.326973 -0.000000 -32.862282
LeftUpLeg -2.586367 -5.812566 -1.419983
LeftLeg 2.208945 -0.000000 -0.000000
LeftFoot -16.619069 13.620922 -24.422295
LeftToeBase 8.381111 -0.000000 -0.000000
RightUpLeg 3.163432 -9.159761 -4.175852
RightLeg -3.735235 -0.000000 0.000000
RightFoot -17.159945 -16.950388 10.701563
RightToeBase 5.275999 -0.000000 -0.000000
262
root -1.398360 31.832298 -6.202906 6.501563 15.189202 4.616771
Spine -6.861722 3.034612 -0.956414
Head -1.030445 -21.949106 3.805060
LeftShoulder -7.485062 16.483958 5.411863
LeftArm 24.231827 39.039679 -72.214193
LeftForeArm -2.368749 -0.000000 14.878137
LeftHand -10.484640 0.000000 -3.336070
LeftHandThumb1 -26.253704 0.000000 33.147579
RightShoulder 8.114867 48.632643 -35.478745
RightArm 46.270393 9.972410 119.148130
RightForeArm 13.956157 -0.000000 105.174071
RightHand -8.945199 -0.000000 0.821876
RightHandThumb1 -24.326973 -0.000000 -32.862282
LeftUpLeg -2.578632 -5.908425 -1.409668
LeftLeg 2.200563 -0.000000 -0.000000
LeftFoot -16.582243 13.585735 -24.372830
LeftToeBase 8.412516 -0.000000 -0.000000
RightUpLeg 3.206583 -9.215250 -4.173059
RightLeg -3.734610 -0.000000 0.000000
RightFoot -17.173148 -17.012463 10.697698
RightToeBase 5.266720 -0.000000 -0.000000
263
root -1.396896 31.832638 -6.196585 6.495744 15.314228 4.625229
Spine -6.839323 3.110893 -0.939458
Head -1.092051 -22.154934 3.911600
LeftShoulder -7.484468 16.392735 5.383742
LeftArm 24.309597 39.163786 -72.095358
LeftForeArm -2.448904 -0.000000 14.715886
LeftHand -10.677498 -0.000000 -3.947952
LeftHandThumb1 -26.253704 0.000000 33.147579
RightShoulder 8.178197 49.125361 -35.641706
RightArm 45.978300 9.718196 119.264031
RightForeArm 14.107691 -0.000000 104.973618
RightHand -9.044155 -0.000000 1.183665
RightHandThumb1 -24.326973 -0.000000 -32.862282
LeftUpLeg -2.573767 -5.994245 -1.403755
LeftLeg 2.209146 -0.000000 -0.000000
LeftFoot -16.549324 13.554789 -24.344939
LeftToeBase 8.365716 -0.000000 -0.000000
RightUpLeg 3.246901 -9.237116 -4.175513
RightLeg -3.726872 -0.000000 0.000000
RightFoot -17.205848 -17.077631 10.750729
RightToeBase 5.212358 -0.000000 -0.000000
264
root -1.395513 31.832717 -6.190922 6.492401 15.429796 4.630048
Spine -6.816740 3.206866 -0.921370
Head -1.161665 -22.369132 4.048314
LeftShoulder -7.472618 16.294782 5.355521
LeftArm 24.356230 39.241797 -72.002285
LeftForeArm -2.600640 0.000000 14.578727
LeftHand -10.575744 -0.000000 -3.536367
LeftHandThumb1 -26.253704 0.000000 33.147579
RightShoulder 8.181940 49.583712 -35.841660
RightArm 45.693084 9.354152 119.269167
RightForeArm 13.938310 -0.000000 104.742341
RightHand -8.981593 -0.000000 0.767455
RightHandThumb1 -24.326973 -0.000000 -32.862282
LeftUpLeg -2.572693 -6.070100 -1.396175
LeftLeg 2.218009 -0.000000 -0.000000
LeftFoot -16.544009 13.511749 -24.367167
LeftToeBase 8.395123 -0.000000 -0.000000
RightUpLeg 3.274582 -9.322658 -4.170110
RightLeg -3.706725 -0.000000 0.000000
RightFoot -17.230847 -17.108655 10.745793
RightToeBase 5.233594 -0.000000 -0.000000
265
root -1.393563 31.832530 -6.184434 6.485464 15.543227 4.636686
Spine -6.796061 3.313237 -0.914637
Head -1.224518 -22.592256 4.204711
LeftShoulder -7.471403 16.249252 5.322609
LeftArm 24.456715 39.307601 -71.865804
LeftForeArm -2.736785 -0.000000 14.451925
LeftHand -10.601593 -0.000000 -3.581392
LeftHandThumb1 -26.253704 0.000000 33.147579
RightShoulder 8.140011 49.845445 -36.076831
RightArm 45.579864 9.017524 119.347526
RightForeArm 13.939271 -0.000000 104.528463
RightHand -9.046671 -0.000000 0.901605
RightHandThumb1 -24.326973 -0.000000 -32.862282
LeftUpLeg -2.562054 -6.158582 -1.395817
LeftLeg 2.224284 -0.000000 -0.000000
LeftFoot -16.557795 13.491787 -24.429075
LeftToeBase 8.377721 -0.000000 -0.000000
RightUpLeg 3.313628 -9.381572 -4.170573
RightLeg -3.697518 -0.000000 0.000000
RightFoot -17.273271 -17.135302 10.797993
RightToeBase 5.261724 -0.000000 -0.000000
266
root -1.393386 31.831462 -6.178595 6.489216 15.665359 4.640720
Spine -6.788615 3.408587 -0.904095
Head -1.297809 -22.783721 4.322569
LeftShoulder -7.491348 16.088495 5.302595
LeftArm 24.419000 39.405112 -71.814925
LeftForeArm -2.804804 -0.000000 14.345821
LeftHand -10.667668 -0.000000 -4.133609
LeftHandThumb1 -26.253704 0.000000 33.147579
RightShoulder 8.120692 50.072096 -36.331930
RightArm 45.497899 8.755779 119.441094
RightForeArm 13.947328 -0.000000 104.369039
RightHand -9.028252 -0.000000 1.004552
RightHandThumb1 -24.326973 -0.000000 -32.862282
LeftUpLeg -2.573474 -6.227371 -1.378452
LeftLeg 2.237230 -0.000000 -0.000000
LeftFoot -16.535773 13.422122 -24.407220
LeftToeBase 8.375024 -0.000000 -0.000000
RightUpLeg 3.339145 -9.480826 -4.162588
RightLeg -3.687404 -0.000000 0.000000
RightFoot -17.281472 -17.128123 10.844050
RightToeBase 5.161562 -0.000000 -0.000000
267
root -1.392195 31.830456 -6.170941 6.483097 15.772468 4.651411
Spine -6.771482 3.531195 -0.920470
Head -1.391144 -23.005187 4.500189
LeftShoulder -7.497644 15.948838 5.295967
LeftArm 24.364725 39.444000 -71.791001
LeftForeArm -2.794624 -0.000000 14.286291
LeftHand -10.699073 0.000000 -4.206998
LeftHandThumb1 -26.253704 0.000000 33.147579
RightShoulder 8.069648 50.383770 -36.560215
RightArm 45.323886 8.577093 119.471511
RightForeArm 13.937182 -0.000000 104.238937
RightHand -9.058626 0.000000 0.876117
RightHandThumb1 -24.326973 -0.000000 -32.862282
LeftUpLeg -2.559989 -6.279922 -1.377548
LeftLeg 2.236102 -0.000000 -0.000000
LeftFoot -16.524776 13.379956 -24.399717
LeftToeBase 8.403705 -0.000000 -0.000000
RightUpLeg 3.385541 -9.547580 -4.166875
RightLeg -3.688975 -0.000000 0.000000
RightFoot -17.315111 -17.177457 10.784608
RightToeBase 5.234841 -0.000000 -0.000000
